<svg width="23" height="22" viewBox="0 0 23 22" fill="none" xmlns="http://www.w3.org/2000/svg">
<path fill-rule="evenodd" clip-rule="evenodd" d="M15.4375 9C15.4375 10.0609 15.0161 11.0783 14.2659 11.8284C13.5158 12.5786 12.4984 13 11.4375 13C10.3766 13 9.35922 12.5786 8.60907 11.8284C7.85893 11.0783 7.4375 10.0609 7.4375 9C7.4375 7.93913 7.85893 6.92172 8.60907 6.17157C9.35922 5.42143 10.3766 5 11.4375 5C12.4984 5 13.5158 5.42143 14.2659 6.17157C15.0161 6.92172 15.4375 7.93913 15.4375 9ZM13.4375 9C13.4375 9.53043 13.2268 10.0391 12.8517 10.4142C12.4766 10.7893 11.9679 11 11.4375 11C10.9071 11 10.3984 10.7893 10.0233 10.4142C9.64821 10.0391 9.4375 9.53043 9.4375 9C9.4375 8.46957 9.64821 7.96086 10.0233 7.58579C10.3984 7.21071 10.9071 7 11.4375 7C11.9679 7 12.4766 7.21071 12.8517 7.58579C13.2268 7.96086 13.4375 8.46957 13.4375 9Z" fill="white"/>
<path fill-rule="evenodd" clip-rule="evenodd" d="M11.4375 0C5.3625 0 0.4375 4.925 0.4375 11C0.4375 17.075 5.3625 22 11.4375 22C17.5125 22 22.4375 17.075 22.4375 11C22.4375 4.925 17.5125 0 11.4375 0ZM2.4375 11C2.4375 13.09 3.1505 15.014 4.3455 16.542C5.18473 15.4399 6.2674 14.5467 7.50893 13.9323C8.75047 13.3179 10.1172 12.9988 11.5025 13C12.8698 12.9987 14.2194 13.3095 15.4484 13.9088C16.6774 14.508 17.7535 15.3799 18.5945 16.458C19.4609 15.3216 20.0443 13.9952 20.2964 12.5886C20.5485 11.182 20.4619 9.73553 20.044 8.36898C19.6261 7.00243 18.8887 5.75505 17.893 4.73004C16.8973 3.70503 15.6718 2.93186 14.3179 2.47451C12.964 2.01716 11.5207 1.88877 10.1074 2.09997C8.69402 2.31117 7.35129 2.85589 6.19027 3.68905C5.02925 4.52222 4.08331 5.61987 3.43073 6.8912C2.77815 8.16252 2.43768 9.57097 2.4375 11ZM11.4375 20C9.37145 20.0031 7.36777 19.2923 5.7655 17.988C6.41043 17.0647 7.26884 16.3109 8.26769 15.7907C9.26655 15.2705 10.3763 14.9992 11.5025 15C12.6147 14.9991 13.711 15.2636 14.7004 15.7714C15.6899 16.2793 16.5439 17.0159 17.1915 17.92C15.5768 19.2667 13.5401 20.0029 11.4375 20Z" fill="white"/>
</svg>
