<svg width="30" height="25" viewBox="0 0 30 25" fill="none" xmlns="http://www.w3.org/2000/svg">
<path d="M30 2.99613C28.8198 3.49618 27.6393 3.80846 26.4597 3.93389C27.792 3.1464 28.6933 2.03387 29.163 0.596391C27.944 1.30876 26.6435 1.79613 25.2605 2.05876C24.042 0.78376 22.5448 0.145996 20.7678 0.145996C19.0675 0.145996 17.6178 0.73654 16.418 1.91788C15.219 3.09917 14.6194 4.5272 14.6194 6.20216C14.6194 6.65208 14.67 7.11476 14.7716 7.58972C12.2589 7.46474 9.9017 6.84288 7.69976 5.72411C5.49794 4.60521 3.62928 3.11455 2.09381 1.25208C1.53541 2.18939 1.25613 3.20832 1.25613 4.30831C1.25613 5.34583 1.50355 6.30848 1.99873 7.19601C2.49358 8.0834 3.15998 8.80207 3.99759 9.35215C3.00757 9.31459 2.0812 9.05827 1.21839 8.58325V8.65824C1.21839 10.1209 1.68476 11.405 2.6174 12.5116C3.55015 13.6181 4.72727 14.3146 6.14847 14.6022C5.61542 14.7396 5.07597 14.8083 4.53037 14.8083C4.175 14.8083 3.7879 14.7771 3.3692 14.7151C3.76257 15.9273 4.48597 16.9238 5.53914 17.7056C6.59251 18.4867 7.78543 18.8894 9.11796 18.915C6.88454 20.6398 4.34015 21.5022 1.48481 21.5022C0.939027 21.5022 0.444244 21.4777 0 21.4275C2.85542 23.2398 6.00259 24.146 9.44173 24.146C11.6245 24.146 13.674 23.8057 15.5896 23.1242C17.5063 22.4432 19.1431 21.5306 20.5011 20.3865C21.8588 19.2429 23.0296 17.9272 24.0132 16.4397C24.9965 14.9522 25.7292 13.3991 26.2118 11.7804C26.6938 10.1613 26.935 8.53977 26.935 6.91446C26.935 6.56442 26.9287 6.30204 26.9158 6.12695C28.1218 5.26485 29.1497 4.22089 30 2.99613Z" fill="white"/>
</svg>
