<svg width="64" height="23" viewBox="0 0 64 23" fill="none" xmlns="http://www.w3.org/2000/svg">
<path d="M15.0938 16.2227C15.0391 17.4102 14.7188 18.4609 14.1328 19.375C13.5469 20.2812 12.7227 20.9844 11.6602 21.4844C10.6055 21.9844 9.39844 22.2344 8.03906 22.2344C5.79688 22.2344 4.03125 21.5039 2.74219 20.043C1.45312 18.582 0.808594 16.5195 0.808594 13.8555V13.0117C0.808594 11.3398 1.09766 9.87891 1.67578 8.62891C2.26172 7.37109 3.10156 6.40234 4.19531 5.72266C5.28906 5.03516 6.55469 4.69141 7.99219 4.69141C10.0625 4.69141 11.7266 5.23828 12.9844 6.33203C14.2422 7.41797 14.957 8.91797 15.1289 10.832H11.0273C10.9961 9.79297 10.7344 9.04688 10.2422 8.59375C9.75 8.14062 9 7.91406 7.99219 7.91406C6.96875 7.91406 6.21875 8.29688 5.74219 9.0625C5.26562 9.82812 5.01562 11.0508 4.99219 12.7305V13.9375C4.99219 15.7578 5.21875 17.0586 5.67188 17.8398C6.13281 18.6211 6.92188 19.0117 8.03906 19.0117C8.98438 19.0117 9.70703 18.7891 10.207 18.3438C10.707 17.8984 10.9727 17.1914 11.0039 16.2227H15.0938ZM26.7305 18.8125H21.0938L20.1094 22H15.7148L21.9727 4.9375H25.8398L32.1445 22H27.7266L26.7305 18.8125ZM22.0781 15.6367H25.7461L23.9062 9.71875L22.0781 15.6367ZM43.4062 4.9375H47.5195V22H43.4062V11.2422L37.2773 22H33.1641V4.9375H37.2773V15.707L43.4062 4.9375ZM44.707 0.34375C44.707 1.41406 44.3125 2.28125 43.5234 2.94531C42.7344 3.60938 41.6836 3.94141 40.3711 3.94141C39.0586 3.94141 38.0078 3.60938 37.2188 2.94531C36.4297 2.28125 36.0352 1.41406 36.0352 0.34375H38.7188C38.7188 0.8125 38.8633 1.17969 39.1523 1.44531C39.4492 1.70312 39.8555 1.83203 40.3711 1.83203C40.8867 1.83203 41.2852 1.70703 41.5664 1.45703C41.8555 1.19922 42 0.828125 42 0.34375H44.707ZM63.4336 8.11328H58.3125V22H54.1992V8.11328H49.1719V4.9375H63.4336V8.11328Z" fill="white"/>
</svg>
