<svg width="20" height="20" viewBox="0 0 20 20" fill="none" xmlns="http://www.w3.org/2000/svg">
<path d="M14.8429 19.6889C14.6561 19.6884 14.4699 19.6679 14.2874 19.6278C10.8133 18.9091 7.61272 17.2241 5.05405 14.7667C2.54997 12.3038 0.813266 9.16811 0.0540471 5.73889C-0.0354743 5.3115 -0.0135022 4.86827 0.11785 4.45184C0.249201 4.03541 0.485512 3.65978 0.804047 3.36111L3.02627 1.22222C3.13977 1.11488 3.27464 1.03268 3.42206 0.980988C3.56948 0.929295 3.72614 0.90927 3.88182 0.92222C4.04325 0.939061 4.19902 0.991061 4.3382 1.07456C4.47737 1.15807 4.59656 1.27105 4.68738 1.40555L7.46516 5.51111C7.56933 5.67041 7.61961 5.85894 7.60861 6.04896C7.59761 6.23898 7.5259 6.42045 7.40405 6.56666L6.0096 8.23333C6.56496 9.46247 7.35146 10.5734 8.32627 11.5056C9.29477 12.4716 10.4395 13.2429 11.6985 13.7778L13.4263 12.4056C13.5714 12.2909 13.748 12.2231 13.9325 12.2112C14.1171 12.1992 14.301 12.2438 14.4596 12.3389L18.654 15.05C18.798 15.1359 18.9206 15.2533 19.0127 15.3934C19.1049 15.5335 19.1641 15.6926 19.186 15.8588C19.2079 16.025 19.1919 16.194 19.1393 16.3531C19.0866 16.5123 18.9986 16.6575 18.8818 16.7778L16.7152 18.9222C16.469 19.1671 16.1769 19.3609 15.8556 19.4925C15.5343 19.6241 15.1901 19.6908 14.8429 19.6889ZM3.79294 2.02222L1.57071 4.16111C1.39152 4.32808 1.25887 4.53882 1.18582 4.7726C1.11276 5.00638 1.10181 5.25515 1.15405 5.49444C1.86 8.7123 3.48278 11.6568 5.82627 13.9722C8.23416 16.2842 11.2461 17.8691 14.5152 18.5444C14.7626 18.5962 15.019 18.5857 15.2614 18.5139C15.5038 18.4422 15.7246 18.3114 15.904 18.1333L18.0707 15.9889L14.0207 13.3722L12.1652 14.85C12.0941 14.9062 12.0104 14.9442 11.9213 14.9607C11.8322 14.9771 11.7405 14.9716 11.654 14.9444C10.1133 14.3768 8.71708 13.4757 7.56516 12.3056C6.37369 11.1929 5.44884 9.82556 4.8596 8.30555C4.83467 8.21353 4.83385 8.11665 4.8572 8.02422C4.88055 7.93178 4.92729 7.84692 4.99294 7.77778L6.49294 5.98333L3.79294 2.02222Z" fill="white"/>
</svg>
