<svg width="23" height="16" viewBox="0 0 23 16" fill="none" xmlns="http://www.w3.org/2000/svg">
<path d="M8.44018 7.905C8.44018 8.62528 8.75144 9.31607 9.30548 9.82538C9.85952 10.3347 10.611 10.6208 11.3945 10.6208C12.178 10.6208 12.9295 10.3347 13.4835 9.82538C14.0375 9.31607 14.3488 8.62528 14.3488 7.905C14.3488 7.18472 14.0375 6.49394 13.4835 5.98462C12.9295 5.4753 12.178 5.18917 11.3945 5.18917C10.611 5.18917 9.85952 5.4753 9.30548 5.98462C8.75144 6.49394 8.44018 7.18472 8.44018 7.905V7.905ZM22.8477 7.27939C20.3471 2.43697 16.5671 0 11.5 0C6.4302 0 2.65292 2.43697 0.152319 7.28181C0.0520185 7.47706 0 7.69029 0 7.90621C0 8.12213 0.0520185 8.33537 0.152319 8.53061C2.65292 13.373 6.43284 15.81 11.5 15.81C16.5698 15.81 20.3471 13.373 22.8477 8.52819C23.0508 8.13536 23.0508 7.67949 22.8477 7.27939V7.27939ZM11.3945 12.1727C8.83057 12.1727 6.75201 10.262 6.75201 7.905C6.75201 5.54805 8.83057 3.63727 11.3945 3.63727C13.9584 3.63727 16.037 5.54805 16.037 7.905C16.037 10.262 13.9584 12.1727 11.3945 12.1727Z" fill="black"/>
</svg>
