<svg width="40" height="23" viewBox="0 0 40 23" fill="none" xmlns="http://www.w3.org/2000/svg">
<path d="M39.7879 20.0144C39.7395 19.9137 39.6943 19.8302 39.6523 19.7633C38.9583 18.5585 37.6321 17.0796 35.6745 15.3262L35.6331 15.286L35.6125 15.2663L35.5915 15.2461H35.5705C34.6819 14.4297 34.1193 13.8807 33.8837 13.5997C33.4527 13.0643 33.3561 12.5223 33.5917 11.9732C33.7581 11.5583 34.3835 10.6821 35.4661 9.34352C36.0355 8.63406 36.4865 8.06548 36.8197 7.6371C39.2219 4.55857 40.2633 2.59134 39.9437 1.73467L39.8197 1.53447C39.7363 1.41395 39.5211 1.30369 39.1743 1.20313C38.8269 1.10279 38.3827 1.08619 37.8411 1.15307L31.8433 1.19301C31.7461 1.15982 31.6073 1.16291 31.4267 1.20313C31.2461 1.24335 31.1557 1.26354 31.1557 1.26354L31.0513 1.31381L30.9685 1.37422C30.8991 1.41416 30.8227 1.48441 30.7393 1.58482C30.6563 1.68488 30.5871 1.80231 30.5315 1.93613C29.8785 3.55562 29.1361 5.06135 28.3029 6.45323C27.7891 7.28319 27.3173 8.00247 26.8865 8.6115C26.4561 9.22032 26.0951 9.66886 25.8037 9.9564C25.5119 10.2442 25.2487 10.4748 25.0121 10.649C24.7761 10.8232 24.5959 10.8968 24.4709 10.8699C24.3459 10.843 24.2281 10.8163 24.1165 10.7895C23.9223 10.669 23.7661 10.5051 23.6483 10.2977C23.5299 10.0902 23.4503 9.82913 23.4087 9.51459C23.3671 9.19984 23.3427 8.92912 23.3357 8.7015C23.3291 8.47417 23.3321 8.15261 23.3463 7.73772C23.3607 7.32263 23.3671 7.04178 23.3671 6.89454C23.3671 6.38587 23.3775 5.83379 23.3981 5.2382C23.4191 4.64259 23.4361 4.1707 23.4503 3.82305C23.4645 3.47503 23.4711 3.10686 23.4711 2.7187C23.4711 2.33055 23.4465 2.02613 23.3981 1.8052C23.3503 1.58454 23.2769 1.37035 23.1801 1.1627C23.0827 0.955262 22.9401 0.794794 22.7531 0.68088C22.5658 0.567104 22.3327 0.476815 22.0555 0.409733C21.3196 0.249197 20.3824 0.162354 19.2437 0.148853C16.6613 0.122132 15.0021 0.282879 14.2662 0.630884C13.9746 0.777919 13.7108 0.978818 13.4749 1.23295C13.2249 1.52751 13.1901 1.68826 13.3705 1.7147C14.2037 1.83501 14.7935 2.12283 15.1407 2.57785L15.2658 2.81898C15.3631 2.99294 15.4602 3.30093 15.5575 3.74254C15.6546 4.18412 15.7172 4.67263 15.7448 5.20774C15.8141 6.18495 15.8141 7.02146 15.7448 7.71733C15.6753 8.41348 15.6096 8.95541 15.547 9.34357C15.4843 9.73173 15.3906 10.0463 15.2658 10.2871C15.1407 10.528 15.0574 10.6753 15.0157 10.7287C14.974 10.7822 14.9393 10.8158 14.9118 10.829C14.7313 10.8957 14.5436 10.9297 14.3493 10.9297C14.1548 10.9297 13.9189 10.8359 13.6413 10.6484C13.3637 10.4609 13.0757 10.2034 12.7771 9.87546C12.4785 9.54744 12.1418 9.08902 11.7668 8.50018C11.3921 7.91134 11.0033 7.2154 10.6006 6.41238L10.2675 5.82999C10.0592 5.45533 9.77476 4.90981 9.41376 4.19389C9.05254 3.47771 8.73326 2.78493 8.4557 2.11571C8.34474 1.83466 8.17806 1.62068 7.95596 1.47344L7.85172 1.41303C7.78242 1.35959 7.67118 1.30284 7.51858 1.24237C7.36576 1.18197 7.2063 1.13865 7.03954 1.112L1.33314 1.15194C0.75002 1.15194 0.354367 1.27929 0.146036 1.53363L0.0626597 1.65394C0.0210082 1.72095 0 1.82798 0 1.9753C0 2.12254 0.0416515 2.30327 0.125028 2.51723C0.958058 4.40458 1.86396 6.22477 2.84273 7.97807C3.82151 9.73139 4.67205 11.1437 5.39383 12.2138C6.11577 13.2847 6.85164 14.2954 7.60144 15.2454C8.35124 16.1957 8.84756 16.8048 9.0904 17.0723C9.33352 17.3404 9.52448 17.5408 9.6633 17.6746L10.1841 18.1563C10.5173 18.4776 11.0066 18.8624 11.6522 19.3107C12.298 19.7593 13.0129 20.2008 13.7974 20.6361C14.582 21.0709 15.4947 21.4254 16.5362 21.6998C17.5775 21.9743 18.591 22.0846 19.5768 22.0314H21.972C22.4576 21.9909 22.8255 21.8438 23.0757 21.5897L23.1585 21.4891C23.2143 21.4091 23.2665 21.2851 23.3145 21.1179C23.3633 20.9508 23.3875 20.7665 23.3875 20.5659C23.3733 19.9904 23.4187 19.4718 23.5227 19.0102C23.6265 18.5486 23.7447 18.2006 23.8771 17.9663C24.0093 17.7321 24.1585 17.5345 24.3247 17.3743C24.4911 17.2138 24.6097 17.1166 24.6793 17.0831C24.7485 17.0494 24.8037 17.0265 24.8453 17.0128C25.1785 16.9058 25.5707 17.0095 26.0223 17.3243C26.4737 17.6388 26.8971 18.0272 27.2929 18.4887C27.6887 18.9507 28.1641 19.4691 28.7193 20.0444C29.2751 20.6201 29.7609 21.0479 30.1771 21.3294L30.5935 21.5704C30.8717 21.731 31.2327 21.8783 31.6771 22.0121C32.1207 22.1459 32.5093 22.1795 32.8429 22.1126L38.1743 22.0324C38.7017 22.0324 39.1119 21.9481 39.4029 21.7812C39.6947 21.6138 39.8679 21.4295 39.9237 21.2292C39.9795 21.0285 39.9825 20.8008 39.9343 20.5461C39.8849 20.2922 39.8363 20.1146 39.7879 20.0144Z" fill="white"/>
</svg>
