<svg width="25" height="25" viewBox="0 0 25 25" fill="none" xmlns="http://www.w3.org/2000/svg">
<path d="M17.4021 0H7.12463C3.19609 0 0 3.19609 0 7.12463V17.4021C0 21.3306 3.19609 24.5267 7.12463 24.5267H17.4021C21.3306 24.5267 24.5267 21.3306 24.5267 17.4021V7.12463C24.5267 3.19609 21.3306 0 17.4021 0ZM22.6106 17.4021C22.6106 20.2741 20.2741 22.6106 17.4021 22.6106H7.12463C4.25265 22.6106 1.91615 20.2741 1.91615 17.4021V7.12463C1.91615 4.25265 4.25265 1.91615 7.12463 1.91615H17.4021C20.2741 1.91615 22.6106 4.25265 22.6106 7.12463V17.4021Z" fill="white"/>
<path d="M12.2633 5.65283C8.61812 5.65283 5.65259 8.61836 5.65259 12.2635C5.65259 15.9087 8.61812 18.8743 12.2633 18.8743C15.9085 18.8743 18.874 15.9087 18.874 12.2635C18.874 8.61836 15.9085 5.65283 12.2633 5.65283ZM12.2633 16.9581C9.67473 16.9581 7.56874 14.8521 7.56874 12.2635C7.56874 9.67497 9.67473 7.56898 12.2633 7.56898C14.8519 7.56898 16.9579 9.67497 16.9579 12.2635C16.9579 14.8521 14.8519 16.9581 12.2633 16.9581Z" fill="white"/>
<path d="M18.9699 6.51478C19.499 6.51478 19.928 6.08584 19.928 5.55671C19.928 5.02758 19.499 4.59863 18.9699 4.59863C18.4408 4.59863 18.0118 5.02758 18.0118 5.55671C18.0118 6.08584 18.4408 6.51478 18.9699 6.51478Z" fill="white"/>
</svg>
