<svg width="90" height="19" viewBox="0 0 90 19" fill="none" xmlns="http://www.w3.org/2000/svg">
<path d="M14.5508 18H10.4609V10.875H4.40234V18H0.289062V0.9375H4.40234V7.71094H10.4609V0.9375H14.5508V18ZM33.327 4.11328H28.2059V18H24.0927V4.11328H19.0653V0.9375H33.327V4.11328ZM51.7752 4.11328H46.6541V18H42.5408V4.11328H37.5134V0.9375H51.7752V4.11328ZM70.7623 9.82031C70.7623 11.4844 70.4538 12.957 69.8366 14.2383C69.2194 15.5195 68.3405 16.5078 67.1998 17.2031C66.067 17.8906 64.7741 18.2344 63.3209 18.2344C61.8678 18.2344 60.5788 17.9023 59.4538 17.2383C58.3288 16.5664 57.4498 15.6094 56.817 14.3672C56.192 13.125 55.8639 11.6992 55.8327 10.0898V9.12891C55.8327 7.45703 56.1373 5.98438 56.7467 4.71094C57.3639 3.42969 58.2428 2.44141 59.3834 1.74609C60.5319 1.05078 61.8366 0.703125 63.2975 0.703125C64.7428 0.703125 66.0319 1.04687 67.1647 1.73438C68.2975 2.42188 69.1764 3.40234 69.8014 4.67578C70.4342 5.94141 70.7545 7.39453 70.7623 9.03516V9.82031ZM66.5788 9.10547C66.5788 7.41016 66.2936 6.125 65.7233 5.25C65.1608 4.36719 64.3522 3.92578 63.2975 3.92578C61.235 3.92578 60.1452 5.47266 60.028 8.56641L60.0163 9.82031C60.0163 11.4922 60.2936 12.7773 60.8483 13.6758C61.403 14.5742 62.2272 15.0234 63.3209 15.0234C64.36 15.0234 65.1608 14.582 65.7233 13.6992C66.2858 12.8164 66.5709 11.5469 66.5788 9.89062V9.10547ZM89.8081 12.2227C89.7534 13.4102 89.4331 14.4609 88.8472 15.375C88.2612 16.2812 87.437 16.9844 86.3745 17.4844C85.3198 17.9844 84.1128 18.2344 82.7534 18.2344C80.5112 18.2344 78.7456 17.5039 77.4566 16.043C76.1675 14.582 75.523 12.5195 75.523 9.85547V9.01172C75.523 7.33984 75.812 5.87891 76.3902 4.62891C76.9761 3.37109 77.8159 2.40234 78.9097 1.72266C80.0034 1.03516 81.2691 0.691406 82.7066 0.691406C84.7769 0.691406 86.4409 1.23828 87.6987 2.33203C88.9566 3.41797 89.6714 4.91797 89.8433 6.83203H85.7417C85.7105 5.79297 85.4487 5.04688 84.9566 4.59375C84.4644 4.14062 83.7144 3.91406 82.7066 3.91406C81.6831 3.91406 80.9331 4.29688 80.4566 5.0625C79.98 5.82812 79.73 7.05078 79.7066 8.73047V9.9375C79.7066 11.7578 79.9331 13.0586 80.3862 13.8398C80.8472 14.6211 81.6362 15.0117 82.7534 15.0117C83.6987 15.0117 84.4214 14.7891 84.9214 14.3438C85.4214 13.8984 85.687 13.1914 85.7183 12.2227H89.8081Z" fill="white"/>
</svg>
