<svg width="23" height="17" viewBox="0 0 23 17" fill="none" xmlns="http://www.w3.org/2000/svg">
<path d="M15.5106 15.1949L13.1905 12.8733C12.2933 13.1941 11.3234 13.2535 10.3937 13.0446C9.46406 12.8357 8.61282 12.3672 7.93905 11.6934C7.26529 11.0196 6.7967 10.1684 6.58782 9.23871C6.37893 8.30904 6.43834 7.33917 6.75913 6.44194L3.79787 3.48069C1.34837 5.65851 0 8.13388 0 8.13388C0 8.13388 4.3125 16.0401 11.5 16.0401C12.8806 16.0353 14.2455 15.7477 15.5106 15.1949ZM7.48938 1.07288C8.75445 0.520054 10.1194 0.232384 11.5 0.227631C18.6875 0.227631 23 8.13388 23 8.13388C23 8.13388 21.6502 10.6078 19.2036 12.7885L16.2394 9.82438C16.5602 8.92715 16.6196 7.95728 16.4107 7.02761C16.2019 6.09794 15.7333 5.2467 15.0595 4.57293C14.3857 3.89917 13.5345 3.43058 12.6048 3.2217C11.6752 3.01281 10.7053 3.07222 9.80806 3.39301L7.48938 1.07432V1.07288Z" fill="black"/>
</svg>
