<svg width="22" height="9" viewBox="0 0 22 9" fill="none" xmlns="http://www.w3.org/2000/svg">
<path fill-rule="evenodd" clip-rule="evenodd" d="M0.24856 0.170689C0.327152 0.116583 0.420515 0.0736555 0.523302 0.0443658C0.62609 0.0150761 0.736282 0 0.847567 0C0.958853 0 1.06904 0.0150761 1.17183 0.0443658C1.27462 0.0736555 1.36798 0.116583 1.44657 0.170689L11.0002 6.73246L20.5539 0.170689C20.6325 0.11667 20.7259 0.0738204 20.8287 0.0445858C20.9315 0.0153511 21.0416 0.00030419 21.1529 0.00030419C21.2641 0.00030419 21.3743 0.0153511 21.4771 0.0445858C21.5798 0.0738204 21.6732 0.11667 21.7519 0.170689C21.8305 0.224708 21.8929 0.288837 21.9355 0.359416C21.9781 0.429994 22 0.50564 22 0.582034C22 0.658428 21.9781 0.734074 21.9355 0.804653C21.8929 0.875231 21.8305 0.939361 21.7519 0.993379L11.5992 7.96533C11.5206 8.01943 11.4273 8.06236 11.3245 8.09165C11.2217 8.12094 11.1115 8.13602 11.0002 8.13602C10.8889 8.13602 10.7787 8.12094 10.676 8.09165C10.5732 8.06236 10.4798 8.01943 10.4012 7.96533L0.24856 0.993379C0.16977 0.93941 0.107259 0.875296 0.0646069 0.804711C0.0219549 0.734125 0 0.658455 0 0.582034C0 0.505613 0.0219549 0.429943 0.0646069 0.359357C0.107259 0.288772 0.16977 0.224658 0.24856 0.170689Z" fill="#F7F7F7"/>
</svg>
